<svg xmlns="http://www.w3.org/2000/svg" width="24" height="24" viewBox="0 0 24 24" fill="none" stroke="currentColor" stroke-width="2" stroke-linecap="round" stroke-linejoin="round" class="lucide lucide-scroll dark:group-hover:text-outline-300 h-6 w-6 stroke-[1.5px] text-neutral-900 outline-zinc-900 transition group-hover:text-neutral-900 group-hover:outline-zinc-900 dark:text-zinc-400 dark:outline-zinc-400 dark:group-hover:text-zinc-300"><path d="M19 17V5a2 2 0 0 0-2-2H4"></path><path d="M8 21h12a2 2 0 0 0 2-2v-1a1 1 0 0 0-1-1H11a1 1 0 0 0-1 1v1a2 2 0 1 1-4 0V5a2 2 0 1 0-4 0v2a1 1 0 0 0 1 1h3"></path></svg>
